<?xml version="1.0" encoding="utf-8"?>
<!-- Generator: Adobe Illustrator 26.3.1, SVG Export Plug-In . SVG Version: 6.00 Build 0)  -->
<svg version="1.1" id="Layer_1" xmlns="http://www.w3.org/2000/svg" xmlns:xlink="http://www.w3.org/1999/xlink" x="0px" y="0px"
	 viewBox="0 0 1321 370" style="enable-background:new 0 0 1321 370;" xml:space="preserve">
<style type="text/css">
	.st0{fill:#FFFFFF;stroke:#1B3460;stroke-width:2.2403;stroke-linecap:round;stroke-linejoin:round;}
	.st1{fill:none;}
	.st2{fill:#231F20;}
	.st3{font-family:'MarkPro-Bold';}
	.st4{font-size:32.6848px;}
	.st5{fill:#70C169;stroke:#1B3460;stroke-width:2;stroke-linecap:round;stroke-linejoin:round;}
	.st6{fill:#70C169;stroke:#1B3460;stroke-width:2;stroke-linecap:round;stroke-linejoin:round;stroke-dasharray:3.5124,3.5124;}
	.st7{fill:none;stroke:#DA375E;stroke-width:4;stroke-linecap:round;stroke-linejoin:round;}
	.st8{fill:#DA375E;}
	.st9{fill:#2169B3;stroke:#1B3460;stroke-width:2;stroke-linecap:round;stroke-linejoin:round;}
	.st10{fill:#2169B3;}
</style>
<path class="st0" d="M700.5,306.3H8.4c-1.8,0-3.2-1.4-3.2-3.2V97.2c0-1.8,1.4-3.2,3.2-3.2h692.1c1.8,0,3.2,1.4,3.2,3.2V303
	C703.8,304.8,702.3,306.3,700.5,306.3z"/>
<rect x="7.2" y="177.7" class="st1" width="280.3" height="38.1"/>
<text transform="matrix(1 0 0 1 33.1184 201.2247)" class="st2 st3 st4">orders: part. 0</text>
<rect x="268.7" y="337.7" class="st1" width="212.8" height="38.1"/>
<text transform="matrix(1 0 0 1 327.4792 361.2676)" class="st2 st3 st4">Kafka</text>
<g>
	<path class="st5" d="M340.6,215.5H290c-1.8,0-3.2-1.4-3.2-3.2v-50.6c0-1.8,1.4-3.2,3.2-3.2h50.6c1.8,0,3.2,1.4,3.2,3.2v50.6
		C343.8,214.1,342.4,215.5,340.6,215.5z"/>
</g>
<g>
	<path class="st5" d="M397.6,215.5H347c-1.8,0-3.2-1.4-3.2-3.2v-50.6c0-1.8,1.4-3.2,3.2-3.2h50.6c1.8,0,3.2,1.4,3.2,3.2v50.6
		C400.9,214.1,399.4,215.5,397.6,215.5z"/>
</g>
<g>
	<path class="st5" d="M454.7,215.5h-50.6c-1.8,0-3.2-1.4-3.2-3.2v-50.6c0-1.8,1.4-3.2,3.2-3.2h50.6c1.8,0,3.2,1.4,3.2,3.2v50.6
		C457.9,214.1,456.4,215.5,454.7,215.5z"/>
</g>
<g>
	<path class="st5" d="M511.7,215.5h-50.6c-1.8,0-3.2-1.4-3.2-3.2v-50.6c0-1.8,1.4-3.2,3.2-3.2h50.6c1.8,0,3.2,1.4,3.2,3.2v50.6
		C514.9,214.1,513.5,215.5,511.7,215.5z"/>
</g>
<g>
	<path class="st5" d="M568.7,215.5h-50.6c-1.8,0-3.2-1.4-3.2-3.2v-50.6c0-1.8,1.4-3.2,3.2-3.2h50.6c1.8,0,3.2,1.4,3.2,3.2v50.6
		C571.9,214.1,570.5,215.5,568.7,215.5z"/>
</g>
<g>
	<path class="st5" d="M625.7,215.5h-50.6c-1.8,0-3.2-1.4-3.2-3.2v-50.6c0-1.8,1.4-3.2,3.2-3.2h50.6c1.8,0,3.2,1.4,3.2,3.2v50.6
		C629,214.1,627.5,215.5,625.7,215.5z"/>
</g>
<g>
	<path class="st6" d="M682.8,215.5h-50.6c-1.8,0-3.2-1.4-3.2-3.2v-50.6c0-1.8,1.4-3.2,3.2-3.2h50.6c1.8,0,3.2,1.4,3.2,3.2v50.6
		C686,214.1,684.5,215.5,682.8,215.5z"/>
</g>
<rect x="286.8" y="177.7" class="st1" width="56.9" height="38.1"/>
<text transform="matrix(1 0 0 1 303.6925 201.2247)" class="st2 st3 st4">0</text>
<rect x="344" y="177.7" class="st1" width="57.7" height="38.1"/>
<text transform="matrix(1 0 0 1 366.085 201.2247)" class="st2 st3 st4">1</text>
<rect x="400.9" y="177.7" class="st1" width="56.9" height="38.1"/>
<text transform="matrix(1 0 0 1 420.1092 201.2247)" class="st2 st3 st4">2</text>
<rect x="457.8" y="177.7" class="st1" width="56.9" height="38.1"/>
<text transform="matrix(1 0 0 1 476.8649 201.2247)" class="st2 st3 st4">3</text>
<rect x="514.7" y="177.7" class="st1" width="56.9" height="38.1"/>
<text transform="matrix(1 0 0 1 533.5717 201.2247)" class="st2 st3 st4">4</text>
<rect x="571.6" y="177.7" class="st1" width="56.9" height="38.1"/>
<text transform="matrix(1 0 0 1 590.4914 201.2247)" class="st2 st3 st4">5</text>
<rect x="628.5" y="177.7" class="st1" width="56.9" height="38.1"/>
<text transform="matrix(1 0 0 1 647.2803 201.2247)" class="st2 st3 st4">6</text>
<g>
	<g>
		<polyline class="st7" points="541.8,146.5 541.8,8.8 1204.9,8.8 1204.9,146.2 		"/>
		<g>
			<polygon class="st8" points="548.6,138.5 541.8,145.3 535,138.5 535,144.3 541.8,151.1 548.6,144.3 			"/>
		</g>
	</g>
</g>
<g>
	<path class="st9" d="M1310.5,215h-206.9c-1.8,0-3.2-1.4-3.2-3.2v-50.6c0-1.8,1.4-3.2,3.2-3.2h206.9c1.8,0,3.2,1.4,3.2,3.2v50.6
		C1313.7,213.6,1312.2,215,1310.5,215z"/>
	<rect x="1101.4" y="173.6" class="st1" width="212.8" height="38.1"/>
	<text transform="matrix(1 0 0 1 1130.9764 247.1476)" class="st10 st3 st4">consumer</text>
</g>
</svg>
