<?xml version="1.0" encoding="utf-8"?>
<!-- Generator: Adobe Illustrator 26.3.1, SVG Export Plug-In . SVG Version: 6.00 Build 0)  -->
<svg version="1.1" id="Layer_1" xmlns="http://www.w3.org/2000/svg" xmlns:xlink="http://www.w3.org/1999/xlink" x="0px" y="0px"
	 viewBox="0 0 589 374" style="enable-background:new 0 0 589 374;" xml:space="preserve">
<style type="text/css">
	.st0{fill:#FFFFFF;stroke:#1B3460;stroke-width:2;stroke-linecap:round;stroke-linejoin:round;}
	.st1{fill:#70C169;stroke:#1B3460;stroke-width:2;stroke-linecap:round;stroke-linejoin:round;}
	.st2{fill:#231F20;}
	.st3{font-family:'MarkPro-Bold';}
	.st4{font-size:32.6848px;}
</style>
<path class="st0" d="M571.7,324.2H21.4c-1.8,0-3.2-1.4-3.2-3.2V15c0-1.8,1.4-3.2,3.2-3.2h550.3c1.8,0,3.2,1.4,3.2,3.2v306
	C574.8,322.8,573.5,324.2,571.7,324.2z"/>
<path class="st1" d="M486,309.1H107.1c-1.8,0-3.2-1.4-3.2-3.2v-77.8c0-1.8,1.4-3.2,3.2-3.2H486c1.8,0,3.2,1.4,3.2,3.2v77.7
	C489.2,307.6,487.7,309.1,486,309.1z"/>
<text transform="matrix(1 0 0 1 155.1999 278.8583)" class="st2 st3 st4">orders: partition 2</text>
<path class="st1" d="M486,211.1H107.1c-1.8,0-3.2-1.4-3.2-3.2v-77.8c0-1.8,1.4-3.2,3.2-3.2H486c1.8,0,3.2,1.4,3.2,3.2v77.7
	C489.2,209.6,487.7,211.1,486,211.1z"/>
<text transform="matrix(1 0 0 1 155.1999 180.8583)" class="st2 st3 st4">orders: partition 1</text>
<path class="st1" d="M486,113.1H107.1c-1.8,0-3.2-1.4-3.2-3.2V32.1c0-1.8,1.4-3.2,3.2-3.2H486c1.8,0,3.2,1.4,3.2,3.2v77.7
	C489.2,111.6,487.7,113.1,486,113.1z"/>
<text transform="matrix(1 0 0 1 155.1999 82.8583)" class="st2 st3 st4">orders: partition 0</text>
<text transform="matrix(1 0 0 1 248.8942 365.2883)" class="st2 st3 st4">Kafka</text>
</svg>
