<?xml version="1.0" encoding="utf-8"?>
<!-- Generator: Adobe Illustrator 26.3.1, SVG Export Plug-In . SVG Version: 6.00 Build 0)  -->
<svg version="1.1" id="Layer_1" xmlns="http://www.w3.org/2000/svg" xmlns:xlink="http://www.w3.org/1999/xlink" x="0px" y="0px"
	 viewBox="0 0 1553 644" style="enable-background:new 0 0 1553 644;" xml:space="preserve">
<style type="text/css">
	.st0{fill:#FFFFFF;stroke:#1B3460;stroke-width:2;stroke-linecap:round;stroke-linejoin:round;}
	.st1{fill:#70C169;stroke:#1B3460;stroke-width:2;stroke-linecap:round;stroke-linejoin:round;}
	.st2{fill:#231F20;}
	.st3{font-family:'MarkPro-Bold';}
	.st4{font-size:32.6848px;}
	.st5{fill:#0075A4;stroke:#1B3460;stroke-width:2;stroke-linecap:round;stroke-linejoin:round;}
	.st6{fill:#0075A4;}
	.st7{fill:#F26134;stroke:#1B3460;stroke-width:2;stroke-linecap:round;stroke-linejoin:round;}
	.st8{fill:#F26134;}
	.st9{fill:none;stroke:#0075A4;stroke-width:4;stroke-linecap:round;stroke-linejoin:round;}
	.st10{fill:none;stroke:#F26134;stroke-width:4;stroke-linecap:round;stroke-linejoin:round;}
</style>
<path class="st0" d="M561.7,442.1H11.4c-1.8,0-3.2-1.4-3.2-3.2V233.1c0-1.8,1.4-3.2,3.2-3.2h550.3c1.8,0,3.2,1.4,3.2,3.2v205.8
	C564.9,440.7,563.5,442.1,561.7,442.1z"/>
<path class="st1" d="M476,365H97.1c-1.8,0-3.2-1.4-3.2-3.2V284c0-1.8,1.4-3.2,3.2-3.2H476c1.8,0,3.2,1.4,3.2,3.2v77.7
	C479.2,363.5,477.7,365,476,365z"/>
<text transform="matrix(1 0 0 1 191.2223 334.7313)" class="st2 st3 st4">orders topic</text>
<text transform="matrix(1 0 0 1 238.9166 483.1613)" class="st2 st3 st4">Kafka</text>
<text transform="matrix(1 0 0 1 1365.9807 136.2887)" class="st2 st3 st4">order</text>
<text transform="matrix(1 0 0 1 1365.9807 175.4887)" class="st2 st3 st4">processing</text>
<text transform="matrix(1 0 0 1 1365.9807 214.6887)" class="st2 st3 st4">consumer</text>
<text transform="matrix(1 0 0 1 1365.9807 253.9887)" class="st2 st3 st4">group</text>
<text transform="matrix(1 0 0 1 1365.9807 490.4667)" class="st2 st3 st4">inventory</text>
<text transform="matrix(1 0 0 1 1365.9807 529.6667)" class="st2 st3 st4">consumer</text>
<text transform="matrix(1 0 0 1 1365.9807 568.8667)" class="st2 st3 st4">group</text>
<g>
	<path class="st0" d="M1326.8,351.6h-242.9c-1.8,0-3.2-1.4-3.2-3.2V42.7c0-1.8,1.4-3.2,3.2-3.2h242.9c1.8,0,3.2,1.4,3.2,3.2v305.6
		C1330,350.2,1328.6,351.6,1326.8,351.6z"/>
	<g>
		<path class="st5" d="M1309.8,116.2h-206.9c-1.8,0-3.2-1.4-3.2-3.2V62.4c0-1.8,1.4-3.2,3.2-3.2h206.9c1.8,0,3.2,1.4,3.2,3.2V113
			C1313,114.7,1311.6,116.2,1309.8,116.2z"/>
		<text transform="matrix(1 0 0 1 1116.8203 145.3564)" class="st6 st3 st4">consumer 0</text>
	</g>
	<g>
		<path class="st5" d="M1309.8,213.6h-206.9c-1.8,0-3.2-1.4-3.2-3.2v-50.6c0-1.8,1.4-3.2,3.2-3.2h206.9c1.8,0,3.2,1.4,3.2,3.2v50.6
			C1313,212.1,1311.6,213.6,1309.8,213.6z"/>
		<text transform="matrix(1 0 0 1 1116.8203 242.6659)" class="st6 st3 st4">consumer 1</text>
	</g>
	<g>
		<path class="st5" d="M1309.8,310.9h-206.9c-1.8,0-3.2-1.4-3.2-3.2v-50.6c0-1.8,1.4-3.2,3.2-3.2h206.9c1.8,0,3.2,1.4,3.2,3.2v50.6
			C1313,309.4,1311.6,310.9,1309.8,310.9z"/>
		<text transform="matrix(1 0 0 1 1116.8203 339.9752)" class="st6 st3 st4">consumer 2</text>
	</g>
</g>
<g>
	<path class="st0" d="M1326.8,641h-242.9c-1.8,0-3.2-1.4-3.2-3.2v-213c0-1.8,1.4-3.2,3.2-3.2h242.9c1.8,0,3.2,1.4,3.2,3.2v213
		C1330,639.6,1328.6,641,1326.8,641z"/>
	<g>
		<path class="st7" d="M1309.8,498.3h-206.9c-1.8,0-3.2-1.4-3.2-3.2v-50.6c0-1.8,1.4-3.2,3.2-3.2h206.9c1.8,0,3.2,1.4,3.2,3.2v50.6
			C1313,496.8,1311.6,498.3,1309.8,498.3z"/>
		<text transform="matrix(1 0 0 1 1116.8203 527.4053)" class="st8 st3 st4">consumer 3</text>
	</g>
	<g>
		<path class="st7" d="M1309.8,595.6h-206.9c-1.8,0-3.2-1.4-3.2-3.2v-50.6c0-1.8,1.4-3.2,3.2-3.2h206.9c1.8,0,3.2,1.4,3.2,3.2v50.6
			C1313,594.1,1311.6,595.6,1309.8,595.6z"/>
		<text transform="matrix(1 0 0 1 1116.8203 624.7148)" class="st8 st3 st4">consumer 4</text>
	</g>
</g>
<g>
	<g>
		<polyline class="st9" points="1094.6,86.1 715,86.1 715,290.7 496.2,290.7 		"/>
		<g>
			<polygon class="st6" points="504.1,283.9 497.3,290.7 504.1,297.5 498.4,297.5 491.6,290.7 498.4,283.9 			"/>
		</g>
	</g>
</g>
<g>
	<g>
		<polyline class="st9" points="1094.6,185.4 733,185.4 733,307.7 496.2,307.7 		"/>
		<g>
			<polygon class="st6" points="504.1,301 497.3,307.7 504.1,314.5 498.4,314.5 491.6,307.7 498.4,301 			"/>
		</g>
	</g>
</g>
<g>
	<g>
		<polyline class="st9" points="1094.6,282.6 753,282.6 753,324.8 496.2,324.8 		"/>
		<g>
			<polygon class="st6" points="504.1,318 497.3,324.8 504.1,331.6 498.4,331.6 491.6,324.8 498.4,318 			"/>
		</g>
	</g>
</g>
<g>
	<g>
		<polyline class="st10" points="1094.6,473.1 733,473.1 733,341.8 496.2,341.8 		"/>
		<g>
			<polygon class="st8" points="504.1,335 497.3,341.8 504.1,348.6 498.4,348.6 491.6,341.8 498.4,335 			"/>
		</g>
	</g>
</g>
<g>
	<g>
		<polyline class="st10" points="1094.6,567.9 715.1,567.9 715.1,358.8 496.2,358.8 		"/>
		<g>
			<polygon class="st8" points="504.1,352.1 497.3,358.8 504.1,365.6 498.4,365.6 491.6,358.8 498.4,352.1 			"/>
		</g>
	</g>
</g>
</svg>
