<?xml version="1.0" encoding="utf-8"?>
<!-- Generator: Adobe Illustrator 26.3.1, SVG Export Plug-In . SVG Version: 6.00 Build 0)  -->
<svg version="1.1" id="Layer_1" xmlns="http://www.w3.org/2000/svg" xmlns:xlink="http://www.w3.org/1999/xlink" x="0px" y="0px"
	 viewBox="0 0 1554 365" style="enable-background:new 0 0 1554 365;" xml:space="preserve">
<style type="text/css">
	.st0{fill:#FFFFFF;stroke:#1B3460;stroke-width:2;stroke-linecap:round;stroke-linejoin:round;}
	.st1{fill:#70C169;stroke:#1B3460;stroke-width:2;stroke-linecap:round;stroke-linejoin:round;}
	.st2{fill:#231F20;}
	.st3{font-family:'MarkPro-Bold';}
	.st4{font-size:32.6848px;}
	.st5{fill:#0075A4;stroke:#1B3460;stroke-width:2;stroke-linecap:round;stroke-linejoin:round;}
	.st6{fill:#0075A4;}
	.st7{fill:none;stroke:#DA375E;stroke-width:4;stroke-linecap:round;stroke-linejoin:round;}
	.st8{fill:#DA375E;}
</style>
<path class="st0" d="M568.8,302.4H18.5c-1.8,0-3.2-1.4-3.2-3.2V93.4c0-1.8,1.4-3.2,3.2-3.2h550.3c1.8,0,3.2,1.4,3.2,3.2v205.8
	C572,301,570.6,302.4,568.8,302.4z"/>
<path class="st1" d="M483.1,225.3H104.2c-1.8,0-3.2-1.4-3.2-3.2v-77.8c0-1.8,1.4-3.2,3.2-3.2h378.9c1.8,0,3.2,1.4,3.2,3.2V222
	C486.3,223.8,484.8,225.3,483.1,225.3z"/>
<text transform="matrix(1 0 0 1 198.3989 195.1046)" class="st2 st3 st4">orders topic</text>
<text transform="matrix(1 0 0 1 246.0932 343.5345)" class="st2 st3 st4">Kafka</text>
<text transform="matrix(1 0 0 1 1373.1572 133.694)" class="st2 st3 st4">order</text>
<text transform="matrix(1 0 0 1 1373.1572 172.894)" class="st2 st3 st4">processing</text>
<text transform="matrix(1 0 0 1 1373.1572 212.094)" class="st2 st3 st4">consumer</text>
<text transform="matrix(1 0 0 1 1373.1572 251.394)" class="st2 st3 st4">group</text>
<g>
	<path class="st0" d="M1334,351.3h-242.9c-1.8,0-3.2-1.4-3.2-3.2V40.9c0-1.8,1.4-3.2,3.2-3.2H1334c1.8,0,3.2,1.4,3.2,3.2V348
		C1337.2,349.9,1335.8,351.3,1334,351.3z"/>
	<g>
		<path class="st5" d="M1317,114.4h-206.9c-1.8,0-3.2-1.4-3.2-3.2V60.6c0-1.8,1.4-3.2,3.2-3.2H1317c1.8,0,3.2,1.4,3.2,3.2v50.6
			C1320.2,112.9,1318.8,114.4,1317,114.4z"/>
		<text transform="matrix(1 0 0 1 1123.9968 144.5359)" class="st6 st3 st4">consumer 0</text>
	</g>
	<g>
		<path class="st5" d="M1317,211.7h-206.9c-1.8,0-3.2-1.4-3.2-3.2v-50.6c0-1.8,1.4-3.2,3.2-3.2H1317c1.8,0,3.2,1.4,3.2,3.2v50.6
			C1320.2,210.2,1318.8,211.7,1317,211.7z"/>
		<text transform="matrix(1 0 0 1 1123.9968 241.8453)" class="st6 st3 st4">consumer 1</text>
	</g>
	<g>
		<path class="st5" d="M1317,309h-206.9c-1.8,0-3.2-1.4-3.2-3.2v-50.6c0-1.8,1.4-3.2,3.2-3.2H1317c1.8,0,3.2,1.4,3.2,3.2v50.6
			C1320.2,307.5,1318.8,309,1317,309z"/>
		<text transform="matrix(1 0 0 1 1123.9968 339.1547)" class="st6 st3 st4">consumer 2</text>
	</g>
</g>
<g>
	<g>
		<polyline class="st7" points="1100.8,84.3 722.1,84.3 722.1,154.1 503.3,154.1 		"/>
		<g>
			<polygon class="st8" points="511.3,147.3 504.5,154.1 511.3,160.9 505.5,160.9 498.8,154.1 505.5,147.3 			"/>
		</g>
	</g>
</g>
<g>
	<g>
		<polyline class="st7" points="1100.8,282.3 722.1,282.3 722.1,212.5 503.3,212.5 		"/>
		<g>
			<polygon class="st8" points="511.3,205.7 504.5,212.5 511.3,219.3 505.5,219.3 498.8,212.5 505.5,205.7 			"/>
		</g>
	</g>
</g>
<g>
	<g>
		<line class="st7" x1="1100.8" y1="184.2" x2="503.4" y2="184.2"/>
		<g>
			<polygon class="st8" points="511.3,177.4 504.5,184.2 511.3,191 505.6,191 498.8,184.2 505.6,177.4 			"/>
		</g>
	</g>
</g>
</svg>
