<?xml version="1.0" encoding="utf-8"?>
<!-- Generator: Adobe Illustrator 26.3.1, SVG Export Plug-In . SVG Version: 6.00 Build 0)  -->
<svg version="1.1" id="Layer_1" xmlns="http://www.w3.org/2000/svg" xmlns:xlink="http://www.w3.org/1999/xlink" x="0px" y="0px"
	 viewBox="0 0 1586 547" style="enable-background:new 0 0 1586 547;" xml:space="preserve">
<style type="text/css">
	.st0{fill:#231F20;}
	.st1{font-family:'MarkPro-Bold';}
	.st2{font-size:32.6848px;}
	.st3{enable-background:new    ;}
	.st4{fill:#FFFFFF;stroke:#1B3460;stroke-width:2;stroke-linecap:round;stroke-linejoin:round;}
	.st5{fill:#0075A4;stroke:#1B3460;stroke-width:2;stroke-linecap:round;stroke-linejoin:round;}
	.st6{fill:#FFFFFF;}
	.st7{fill:none;}
	.st8{fill:#70C169;stroke:#1B3460;stroke-width:2;stroke-linecap:round;stroke-linejoin:round;}
	.st9{fill:#70C169;stroke:#1B3460;stroke-width:2;stroke-linecap:round;stroke-linejoin:round;stroke-dasharray:3.5124,3.5124;}
	.st10{fill:none;stroke:#DA375E;stroke-width:4;stroke-linecap:round;stroke-linejoin:round;}
	.st11{fill:#DA375E;}
</style>
<text transform="matrix(1 0 0 1 328.8519 505.2256)" class="st0 st1 st2">Kafka</text>
<g>
	<text transform="matrix(1 0 0 1 1395.5291 217.1355)" class="st3"><tspan x="0" y="0" class="st0 st1 st2">order</tspan><tspan x="0" y="39.2" class="st0 st1 st2">processing</tspan><tspan x="0" y="78.4" class="st0 st1 st2">consumer</tspan><tspan x="0" y="117.7" class="st0 st1 st2">group</tspan></text>
	<g>
		<path class="st4" d="M1356.4,410h-242.9c-1.8,0-3.2-1.4-3.2-3.2V124.3c0-1.8,1.4-3.2,3.2-3.2h242.9c1.8,0,3.2,1.4,3.2,3.2v282.4
			C1359.6,408.6,1358.2,410,1356.4,410z"/>
		<g>
			<path class="st5" d="M1339.4,197.9h-206.9c-1.8,0-3.2-1.4-3.2-3.2v-50.6c0-1.8,1.4-3.2,3.2-3.2h206.9c1.8,0,3.2,1.4,3.2,3.2v50.6
				C1342.6,196.4,1341.2,197.9,1339.4,197.9z"/>
			<text transform="matrix(1 0 0 1 1146.3687 179.9775)" class="st6 st1 st2">consumer 0</text>
		</g>
		<g>
			<path class="st5" d="M1339.4,295.2h-206.9c-1.8,0-3.2-1.4-3.2-3.2v-50.6c0-1.8,1.4-3.2,3.2-3.2h206.9c1.8,0,3.2,1.4,3.2,3.2V292
				C1342.6,293.7,1341.2,295.2,1339.4,295.2z"/>
			<text transform="matrix(1 0 0 1 1146.3687 277.2868)" class="st6 st1 st2">consumer 1</text>
		</g>
		<g>
			<path class="st5" d="M1339.4,392.5h-206.9c-1.8,0-3.2-1.4-3.2-3.2v-50.6c0-1.8,1.4-3.2,3.2-3.2h206.9c1.8,0,3.2,1.4,3.2,3.2v50.6
				C1342.6,391,1341.2,392.5,1339.4,392.5z"/>
			<text transform="matrix(1 0 0 1 1146.3687 374.5962)" class="st6 st1 st2">consumer 2</text>
		</g>
	</g>
</g>
<g>
	<path class="st4" d="M713.8,449.5H24.7c-1.8,0-3.2-1.4-3.2-3.2V84.9c0-1.8,1.4-3.2,3.2-3.2h689.1c1.8,0,3.2,1.4,3.2,3.2v361.4
		C717,448.1,715.6,449.5,713.8,449.5z"/>
	<rect x="16.6" y="372.6" class="st7" width="280.3" height="38.1"/>
	<text transform="matrix(1 0 0 1 42.5788 396.1041)" class="st0 st1 st2">orders: part. 2</text>
	<g>
		<path class="st8" d="M350,410.4h-50.6c-1.8,0-3.2-1.4-3.2-3.2v-50.6c0-1.8,1.4-3.2,3.2-3.2H350c1.8,0,3.2,1.4,3.2,3.2v50.6
			C353.3,409,351.8,410.4,350,410.4z"/>
	</g>
	<g>
		<path class="st8" d="M407.1,410.4h-50.6c-1.8,0-3.2-1.4-3.2-3.2v-50.6c0-1.8,1.4-3.2,3.2-3.2h50.6c1.8,0,3.2,1.4,3.2,3.2v50.6
			C410.3,409,408.8,410.4,407.1,410.4z"/>
	</g>
	<g>
		<path class="st8" d="M464.1,410.4h-50.6c-1.8,0-3.2-1.4-3.2-3.2v-50.6c0-1.8,1.4-3.2,3.2-3.2h50.6c1.8,0,3.2,1.4,3.2,3.2v50.6
			C467.3,409,465.9,410.4,464.1,410.4z"/>
	</g>
	<g>
		<path class="st8" d="M521.1,410.4h-50.6c-1.8,0-3.2-1.4-3.2-3.2v-50.6c0-1.8,1.4-3.2,3.2-3.2h50.6c1.8,0,3.2,1.4,3.2,3.2v50.6
			C524.3,409,522.9,410.4,521.1,410.4z"/>
	</g>
	<g>
		<path class="st9" d="M578.1,410.4h-50.6c-1.8,0-3.2-1.4-3.2-3.2v-50.6c0-1.8,1.4-3.2,3.2-3.2h50.6c1.8,0,3.2,1.4,3.2,3.2v50.6
			C581.4,409,579.9,410.4,578.1,410.4z"/>
	</g>
	<rect x="296.2" y="372.6" class="st7" width="56.9" height="38.1"/>
	<text transform="matrix(1 0 0 1 313.153 396.1041)" class="st0 st1 st2">0</text>
	<rect x="353.4" y="372.6" class="st7" width="57.7" height="38.1"/>
	<text transform="matrix(1 0 0 1 375.5454 396.1041)" class="st0 st1 st2">1</text>
	<rect x="410.3" y="372.6" class="st7" width="56.9" height="38.1"/>
	<text transform="matrix(1 0 0 1 429.5696 396.1041)" class="st0 st1 st2">2</text>
	<rect x="467.2" y="372.6" class="st7" width="56.9" height="38.1"/>
	<text transform="matrix(1 0 0 1 486.3253 396.1041)" class="st0 st1 st2">3</text>
	<rect x="524.1" y="372.6" class="st7" width="56.9" height="38.1"/>
	<text transform="matrix(1 0 0 1 543.0321 396.1041)" class="st0 st1 st2">4</text>
	<rect x="16.6" y="258.8" class="st7" width="280.3" height="38.1"/>
	<text transform="matrix(1 0 0 1 42.5788 282.2975)" class="st0 st1 st2">orders: part. 1</text>
	<g>
		<path class="st8" d="M350,296.6h-50.6c-1.8,0-3.2-1.4-3.2-3.2v-50.6c0-1.8,1.4-3.2,3.2-3.2H350c1.8,0,3.2,1.4,3.2,3.2v50.6
			C353.3,295.2,351.8,296.6,350,296.6z"/>
	</g>
	<g>
		<path class="st8" d="M407.1,296.6h-50.6c-1.8,0-3.2-1.4-3.2-3.2v-50.6c0-1.8,1.4-3.2,3.2-3.2h50.6c1.8,0,3.2,1.4,3.2,3.2v50.6
			C410.3,295.2,408.8,296.6,407.1,296.6z"/>
	</g>
	<g>
		<path class="st8" d="M464.1,296.6h-50.6c-1.8,0-3.2-1.4-3.2-3.2v-50.6c0-1.8,1.4-3.2,3.2-3.2h50.6c1.8,0,3.2,1.4,3.2,3.2v50.6
			C467.3,295.2,465.9,296.6,464.1,296.6z"/>
	</g>
	<g>
		<path class="st9" d="M521.1,296.6h-50.6c-1.8,0-3.2-1.4-3.2-3.2v-50.6c0-1.8,1.4-3.2,3.2-3.2h50.6c1.8,0,3.2,1.4,3.2,3.2v50.6
			C524.3,295.2,522.9,296.6,521.1,296.6z"/>
	</g>
	<rect x="296.2" y="258.8" class="st7" width="56.9" height="38.1"/>
	<text transform="matrix(1 0 0 1 313.153 282.2975)" class="st0 st1 st2">0</text>
	<rect x="353.4" y="258.8" class="st7" width="57.7" height="38.1"/>
	<text transform="matrix(1 0 0 1 375.5454 282.2975)" class="st0 st1 st2">1</text>
	<rect x="410.3" y="258.8" class="st7" width="56.9" height="38.1"/>
	<text transform="matrix(1 0 0 1 429.5696 282.2975)" class="st0 st1 st2">2</text>
	<rect x="467.2" y="258.8" class="st7" width="56.9" height="38.1"/>
	<text transform="matrix(1 0 0 1 486.3253 282.2975)" class="st0 st1 st2">3</text>
	<rect x="16.6" y="145" class="st7" width="280.3" height="38.1"/>
	<text transform="matrix(1 0 0 1 42.5788 168.4908)" class="st0 st1 st2">orders: part. 0</text>
	<g>
		<path class="st8" d="M350,182.8h-50.6c-1.8,0-3.2-1.4-3.2-3.2V129c0-1.8,1.4-3.2,3.2-3.2H350c1.8,0,3.2,1.4,3.2,3.2v50.6
			C353.3,181.4,351.8,182.8,350,182.8z"/>
	</g>
	<g>
		<path class="st8" d="M407.1,182.8h-50.6c-1.8,0-3.2-1.4-3.2-3.2V129c0-1.8,1.4-3.2,3.2-3.2h50.6c1.8,0,3.2,1.4,3.2,3.2v50.6
			C410.3,181.4,408.8,182.8,407.1,182.8z"/>
	</g>
	<g>
		<path class="st8" d="M464.1,182.8h-50.6c-1.8,0-3.2-1.4-3.2-3.2V129c0-1.8,1.4-3.2,3.2-3.2h50.6c1.8,0,3.2,1.4,3.2,3.2v50.6
			C467.3,181.4,465.9,182.8,464.1,182.8z"/>
	</g>
	<g>
		<path class="st8" d="M521.1,182.8h-50.6c-1.8,0-3.2-1.4-3.2-3.2V129c0-1.8,1.4-3.2,3.2-3.2h50.6c1.8,0,3.2,1.4,3.2,3.2v50.6
			C524.3,181.4,522.9,182.8,521.1,182.8z"/>
	</g>
	<g>
		<path class="st8" d="M578.1,182.8h-50.6c-1.8,0-3.2-1.4-3.2-3.2V129c0-1.8,1.4-3.2,3.2-3.2h50.6c1.8,0,3.2,1.4,3.2,3.2v50.6
			C581.4,181.4,579.9,182.8,578.1,182.8z"/>
	</g>
	<g>
		<path class="st8" d="M635.2,182.8h-50.6c-1.8,0-3.2-1.4-3.2-3.2V129c0-1.8,1.4-3.2,3.2-3.2h50.6c1.8,0,3.2,1.4,3.2,3.2v50.6
			C638.4,181.4,636.9,182.8,635.2,182.8z"/>
	</g>
	<g>
		<path class="st9" d="M692.2,182.8h-50.6c-1.8,0-3.2-1.4-3.2-3.2V129c0-1.8,1.4-3.2,3.2-3.2h50.6c1.8,0,3.2,1.4,3.2,3.2v50.6
			C695.4,181.4,694,182.8,692.2,182.8z"/>
	</g>
	<rect x="296.2" y="145" class="st7" width="56.9" height="38.1"/>
	<text transform="matrix(1 0 0 1 313.153 168.4908)" class="st0 st1 st2">0</text>
	<rect x="353.4" y="145" class="st7" width="57.7" height="38.1"/>
	<text transform="matrix(1 0 0 1 375.5454 168.4908)" class="st0 st1 st2">1</text>
	<rect x="410.3" y="145" class="st7" width="56.9" height="38.1"/>
	<text transform="matrix(1 0 0 1 429.5696 168.4908)" class="st0 st1 st2">2</text>
	<rect x="467.2" y="145" class="st7" width="56.9" height="38.1"/>
	<text transform="matrix(1 0 0 1 486.3253 168.4908)" class="st0 st1 st2">3</text>
	<rect x="524.1" y="145" class="st7" width="56.9" height="38.1"/>
	<text transform="matrix(1 0 0 1 543.0321 168.4908)" class="st0 st1 st2">4</text>
	<rect x="581" y="145" class="st7" width="56.9" height="38.1"/>
	<text transform="matrix(1 0 0 1 599.9518 168.4908)" class="st0 st1 st2">5</text>
	<rect x="637.9" y="145" class="st7" width="56.9" height="38.1"/>
	<text transform="matrix(1 0 0 1 656.7407 168.4908)" class="st0 st1 st2">6</text>
</g>
<g>
	<g>
		<polyline class="st10" points="1123.9,167.3 920.6,167.3 920.6,95 609.6,95 609.6,115.4 		"/>
		<g>
			<polygon class="st11" points="602.9,107.4 609.6,114.2 616.4,107.4 616.4,113.2 609.6,120 602.9,113.2 			"/>
		</g>
	</g>
</g>
<g>
	<g>
		<polyline class="st10" points="1123.9,365.1 920.6,365.1 920.6,322.1 555.2,322.1 555.2,342.6 		"/>
		<g>
			<polygon class="st11" points="548.5,334.6 555.2,341.4 562,334.6 562,340.4 555.2,347.2 548.5,340.4 			"/>
		</g>
	</g>
</g>
<g>
	<g>
		<polyline class="st10" points="1123.9,267.3 920.6,267.3 920.6,209.6 382.6,209.6 382.6,230 		"/>
		<g>
			<polygon class="st11" points="375.8,222.1 382.6,228.9 389.4,222.1 389.4,227.8 382.6,234.6 375.8,227.8 			"/>
		</g>
	</g>
</g>
</svg>
