<?xml version="1.0" encoding="utf-8"?>
<!-- Generator: Adobe Illustrator 26.3.1, SVG Export Plug-In . SVG Version: 6.00 Build 0)  -->
<svg version="1.1" id="Layer_1" xmlns="http://www.w3.org/2000/svg" xmlns:xlink="http://www.w3.org/1999/xlink" x="0px" y="0px"
	 viewBox="0 0 584 907" style="enable-background:new 0 0 584 907;" xml:space="preserve">
<style type="text/css">
	.st0{fill:#FFFFFF;stroke:#1B3460;stroke-width:2;stroke-linecap:round;stroke-linejoin:round;}
	.st1{fill:#FFC415;stroke:#1B3460;stroke-width:2;stroke-linecap:round;stroke-linejoin:round;}
	.st2{fill:#231F20;}
	.st3{font-family:'MarkPro-Bold';}
	.st4{font-size:27.9704px;}
	.st5{font-size:32.6848px;}
	.st6{fill:#70C169;stroke:#1B3460;stroke-width:2;stroke-linecap:round;stroke-linejoin:round;}
	.st7{fill:#DA375E;stroke:#1B3460;stroke-width:2;stroke-linecap:round;stroke-linejoin:round;}
</style>
<path class="st0" d="M567.7,856H17.4c-1.8,0-3.2-1.4-3.2-3.2V12.4c0-1.8,1.4-3.2,3.2-3.2h550.3c1.8,0,3.2,1.4,3.2,3.2v840.4
	C570.8,854.6,569.5,856,567.7,856z"/>
<path class="st1" d="M550.7,217.5H37.5c-1.5,0-2.7-1.2-2.7-2.7V33.6c0-1.5,1.2-2.7,2.7-2.7h513.2c1.5,0,2.7,1.2,2.7,2.7v181.1
	C553.4,216.2,552.1,217.5,550.7,217.5z"/>
<text transform="matrix(1 0 0 1 49.6455 92.1919)" class="st2 st3 st4">101</text>
<text transform="matrix(1 0 0 1 244.8942 900.8685)" class="st2 st3 st5">Kafka</text>
<path class="st6" d="M535.6,119.2H115.1c-1.5,0-2.7-1.2-2.7-2.7V49.9c0-1.5,1.2-2.7,2.7-2.7h420.5c1.5,0,2.7,1.2,2.7,2.7v66.5
	C538.3,117.9,537.1,119.2,535.6,119.2z"/>
<text transform="matrix(1 0 0 1 149.5163 92.1919)" class="st2 st3 st4">orders: partition 2</text>
<path class="st7" d="M535.6,200.6H115.1c-1.5,0-2.7-1.2-2.7-2.7v-66.6c0-1.5,1.2-2.7,2.7-2.7h420.5c1.5,0,2.7,1.2,2.7,2.7v66.5
	C538.3,199.3,537.1,200.6,535.6,200.6z"/>
<text transform="matrix(1 0 0 1 149.5163 173.6017)" class="st2 st3 st4">customers: partition 1</text>
<path class="st1" d="M550.7,418.7H37.5c-1.5,0-2.7-1.2-2.7-2.7V234.8c0-1.5,1.2-2.7,2.7-2.7h513.2c1.5,0,2.7,1.2,2.7,2.7v181.1
	C553.4,417.4,552.1,418.7,550.7,418.7z"/>
<text transform="matrix(1 0 0 1 49.6455 293.3581)" class="st2 st3 st4">102</text>
<path class="st6" d="M535.6,320.3H115.1c-1.5,0-2.7-1.2-2.7-2.7V251c0-1.5,1.2-2.7,2.7-2.7h420.5c1.5,0,2.7,1.2,2.7,2.7v66.5
	C538.3,319.1,537.1,320.3,535.6,320.3z"/>
<text transform="matrix(1 0 0 1 149.5163 293.3581)" class="st2 st3 st4">orders: partition 0</text>
<path class="st1" d="M550.7,619.9H37.5c-1.5,0-2.7-1.2-2.7-2.7V436c0-1.5,1.2-2.7,2.7-2.7h513.2c1.5,0,2.7,1.2,2.7,2.7V617
	C553.4,618.6,552.1,619.9,550.7,619.9z"/>
<text transform="matrix(1 0 0 1 49.6455 494.5243)" class="st2 st3 st4">103</text>
<path class="st7" d="M535.6,521.5H115.1c-1.5,0-2.7-1.2-2.7-2.7v-66.6c0-1.5,1.2-2.7,2.7-2.7h420.5c1.5,0,2.7,1.2,2.7,2.7v66.5
	C538.3,520.2,537.1,521.5,535.6,521.5z"/>
<text transform="matrix(1 0 0 1 149.5163 494.5243)" class="st2 st3 st4">customers: partition 0</text>
<path class="st1" d="M550.7,821H37.5c-1.5,0-2.7-1.2-2.7-2.7V637.1c0-1.5,1.2-2.7,2.7-2.7h513.2c1.5,0,2.7,1.2,2.7,2.7v181.1
	C553.4,819.7,552.1,821,550.7,821z"/>
<text transform="matrix(1 0 0 1 49.6455 695.6904)" class="st2 st3 st4">104</text>
<path class="st6" d="M535.6,722.7H115.1c-1.5,0-2.7-1.2-2.7-2.7v-66.6c0-1.5,1.2-2.7,2.7-2.7h420.5c1.5,0,2.7,1.2,2.7,2.7v66.5
	C538.3,721.4,537.1,722.7,535.6,722.7z"/>
<text transform="matrix(1 0 0 1 149.5163 695.6904)" class="st2 st3 st4">orders: partition 1</text>
</svg>
