<?xml version="1.0" encoding="utf-8"?>
<!-- Generator: Adobe Illustrator 26.3.1, SVG Export Plug-In . SVG Version: 6.00 Build 0)  -->
<svg version="1.1" id="Layer_1" xmlns="http://www.w3.org/2000/svg" xmlns:xlink="http://www.w3.org/1999/xlink" x="0px" y="0px"
	 viewBox="0 0 462 162" style="enable-background:new 0 0 462 162;" xml:space="preserve">
<style type="text/css">
	.st0{fill:#FFFFFF;stroke:#1B3460;stroke-width:2;stroke-linecap:round;stroke-linejoin:round;}
	.st1{fill:none;}
	.st2{fill:#231F20;}
	.st3{font-family:'MarkPro-Bold';}
	.st4{font-size:26.2982px;}
	.st5{fill:#DA375E;stroke:#1B3460;stroke-width:2;stroke-linecap:round;stroke-linejoin:round;}
	.st6{fill:#70C169;stroke:#1B3460;stroke-width:2;stroke-linecap:round;stroke-linejoin:round;}
</style>
<path class="st0" d="M245.9,54.6h-46.3c-1.4,0-2.6-1.2-2.6-2.7V4.4c0-1.5,1.1-2.7,2.6-2.7h46.3c1.4,0,2.6,1.2,2.6,2.7v47.4
	C248.5,53.4,247.2,54.6,245.9,54.6z"/>
<rect x="197" y="18.1" class="st1" width="51.5" height="34.8"/>
<text transform="matrix(1 0 0 1 213.4711 37.0485)" class="st2 st3 st4">0</text>
<rect x="12.2" y="18.1" class="st1" width="166.1" height="34.8"/>
<text transform="matrix(1 0 0 1 99.9385 37.0485)" class="st2 st3 st4">offset</text>
<rect x="12.2" y="71.5" class="st1" width="166.1" height="34.8"/>
<text transform="matrix(1 0 0 1 134.4282 90.4677)" class="st2 st3 st4">key</text>
<rect x="12.2" y="123.7" class="st1" width="166.1" height="34.8"/>
<text transform="matrix(1 0 0 1 35.4697 142.5967)" class="st2 st3 st4">age in days</text>
<path class="st0" d="M297.4,54.6h-46.3c-1.4,0-2.6-1.2-2.6-2.7V4.4c0-1.5,1.1-2.7,2.6-2.7h46.3c1.4,0,2.6,1.2,2.6,2.7v47.4
	C300,53.4,298.8,54.6,297.4,54.6z"/>
<rect x="248.6" y="18.1" class="st1" width="51.5" height="34.8"/>
<text transform="matrix(1 0 0 1 268.9057 37.0485)" class="st2 st3 st4">1</text>
<path class="st0" d="M349,54.6h-46.3c-1.4,0-2.6-1.2-2.6-2.7V4.4c0-1.5,1.1-2.7,2.6-2.7H349c1.4,0,2.6,1.2,2.6,2.7v47.4
	C351.6,53.4,350.3,54.6,349,54.6z"/>
<rect x="300.1" y="18.1" class="st1" width="51.5" height="34.8"/>
<text transform="matrix(1 0 0 1 318.4491 37.0485)" class="st2 st3 st4">2</text>
<path class="st0" d="M400.5,54.6h-46.3c-1.4,0-2.6-1.2-2.6-2.7V4.4c0-1.5,1.1-2.7,2.6-2.7h46.3c1.4,0,2.6,1.2,2.6,2.7v47.4
	C403.1,53.4,401.9,54.6,400.5,54.6z"/>
<rect x="351.7" y="18.1" class="st1" width="51.5" height="34.8"/>
<text transform="matrix(1 0 0 1 369.8793 37.0485)" class="st2 st3 st4">3</text>
<path class="st0" d="M452.1,54.6h-46.3c-1.4,0-2.6-1.2-2.6-2.7V4.4c0-1.5,1.1-2.7,2.6-2.7h46.3c1.4,0,2.6,1.2,2.6,2.7v47.4
	C454.6,53.4,453.4,54.6,452.1,54.6z"/>
<rect x="403.2" y="18.1" class="st1" width="51.5" height="34.8"/>
<text transform="matrix(1 0 0 1 421.2704 37.0485)" class="st2 st3 st4">4</text>
<path class="st0" d="M245.9,107.6h-46.3c-1.4,0-2.6-1.2-2.6-2.7V57.4c0-1.5,1.1-2.7,2.6-2.7h46.3c1.4,0,2.6,1.2,2.6,2.7v47.4
	C248.5,106.3,247.2,107.6,245.9,107.6z"/>
<rect x="197" y="71.1" class="st1" width="51.5" height="34.8"/>
<text transform="matrix(1 0 0 1 214.6806 89.9962)" class="st2 st3 st4">a</text>
<path class="st0" d="M297.4,107.6h-46.3c-1.4,0-2.6-1.2-2.6-2.7V57.4c0-1.5,1.1-2.7,2.6-2.7h46.3c1.4,0,2.6,1.2,2.6,2.7v47.4
	C300,106.3,298.8,107.6,297.4,107.6z"/>
<rect x="248.6" y="71.1" class="st1" width="51.5" height="34.8"/>
<text transform="matrix(1 0 0 1 266.2362 89.9962)" class="st2 st3 st4">b</text>
<path class="st0" d="M349,107.6h-46.3c-1.4,0-2.6-1.2-2.6-2.7V57.4c0-1.5,1.1-2.7,2.6-2.7H349c1.4,0,2.6,1.2,2.6,2.7v47.4
	C351.6,106.3,350.3,107.6,349,107.6z"/>
<rect x="300.1" y="71.1" class="st1" width="51.5" height="34.8"/>
<text transform="matrix(1 0 0 1 317.7851 89.9962)" class="st2 st3 st4">b</text>
<path class="st0" d="M400.5,107.6h-46.3c-1.4,0-2.6-1.2-2.6-2.7V57.4c0-1.5,1.1-2.7,2.6-2.7h46.3c1.4,0,2.6,1.2,2.6,2.7v47.4
	C403.1,106.3,401.9,107.6,400.5,107.6z"/>
<rect x="351.7" y="71.1" class="st1" width="51.5" height="34.8"/>
<text transform="matrix(1 0 0 1 369.3266 89.9962)" class="st2 st3 st4">a</text>
<path class="st0" d="M452.1,107.6h-46.3c-1.4,0-2.6-1.2-2.6-2.7V57.4c0-1.5,1.1-2.7,2.6-2.7h46.3c1.4,0,2.6,1.2,2.6,2.7v47.4
	C454.6,106.3,453.4,107.6,452.1,107.6z"/>
<rect x="403.2" y="71.1" class="st1" width="51.5" height="34.8"/>
<text transform="matrix(1 0 0 1 420.8759 89.9962)" class="st2 st3 st4">a</text>
<path class="st5" d="M245.9,160.5h-46.3c-1.4,0-2.6-1.2-2.6-2.7v-47.5c0-1.5,1.1-2.7,2.6-2.7h46.3c1.4,0,2.6,1.2,2.6,2.7v47.4
	C248.5,159.3,247.2,160.5,245.9,160.5z"/>
<rect x="197" y="124" class="st1" width="51.5" height="34.8"/>
<text transform="matrix(1 0 0 1 209.954 142.9445)" class="st2 st3 st4">12</text>
<path class="st5" d="M297.4,160.5h-46.3c-1.4,0-2.6-1.2-2.6-2.7v-47.5c0-1.5,1.1-2.7,2.6-2.7h46.3c1.4,0,2.6,1.2,2.6,2.7v47.4
	C300,159.3,298.8,160.5,297.4,160.5z"/>
<rect x="248.6" y="124" class="st1" width="51.5" height="34.8"/>
<text transform="matrix(1 0 0 1 259.6225 142.9445)" class="st2 st3 st4">10</text>
<path class="st6" d="M349,160.5h-46.3c-1.4,0-2.6-1.2-2.6-2.7v-47.5c0-1.5,1.1-2.7,2.6-2.7H349c1.4,0,2.6,1.2,2.6,2.7v47.4
	C351.6,159.3,350.3,160.5,349,160.5z"/>
<rect x="300.1" y="124" class="st1" width="51.5" height="34.8"/>
<text transform="matrix(1 0 0 1 318.0941 142.9445)" class="st2 st3 st4">6</text>
<path class="st6" d="M400.5,160.5h-46.3c-1.4,0-2.6-1.2-2.6-2.7v-47.5c0-1.5,1.1-2.7,2.6-2.7h46.3c1.4,0,2.6,1.2,2.6,2.7v47.4
	C403.1,159.3,401.9,160.5,400.5,160.5z"/>
<rect x="351.7" y="124" class="st1" width="51.5" height="34.8"/>
<text transform="matrix(1 0 0 1 369.7343 142.9445)" class="st2 st3 st4">5</text>
<path class="st6" d="M452.1,160.5h-46.3c-1.4,0-2.6-1.2-2.6-2.7v-47.5c0-1.5,1.1-2.7,2.6-2.7h46.3c1.4,0,2.6,1.2,2.6,2.7v47.4
	C454.6,159.3,453.4,160.5,452.1,160.5z"/>
<rect x="403.2" y="124" class="st1" width="51.5" height="34.8"/>
<text transform="matrix(1 0 0 1 421.5468 142.9445)" class="st2 st3 st4">2</text>
</svg>
